<svg width="294" height="110" viewBox="0 0 294 110" fill="none" xmlns="http://www.w3.org/2000/svg">
<path d="M0 105.5L24 101L39.5 75.5L58 65.5C64.3333 61.3333 78.2 52.6 83 51C87.8 49.4 95.6667 43.6667 99 41C106.333 45.3333 121.6 54 124 54C126.4 54 139.333 49.6667 145.5 47.5L167.5 16L184 12.5L201 0L219.5 27.5H226.5L232.5 33H238.5L246 41L257 42L270.5 71.5L293.5 83H279.5L263.5 80L252 62.5L238.5 54L214 33L199.5 13.5C197.667 13.3333 192.8 13.8 188 17C183.2 20.2 180 26.3333 179 29C185.003 35.0032 198.133 46.7435 207.743 51.1346C209.12 51.6347 210.396 52.0987 211.5 52.5C210.334 52.2084 209.072 51.7418 207.743 51.1346C199.973 48.3119 189.019 44.3398 188 44C186.8 43.6 178.833 34.8333 175 30.5L165.5 32L161 47.5C164.333 50.6667 172.6 57.2 179 58C176 57.8333 169.1 57.3 165.5 56.5C161.9 55.7 157.667 52.5 156 51L140 62.5C143.5 68.5 150.8 81 152 83C153.5 85.5 160.5 90.5 165.5 93C169.5 95 180.833 96.5 186 97C178.333 97.6667 162.2 98.9 159 98.5C155 98 149.5 95.5 146.5 93C144.1 91 139.833 86.1667 138 84L132.5 69.5C129.167 68.1667 122.2 65.2 121 64C119.5 62.5 114 54 113 54C112.2 54 108 52 106 51C103.667 53.3333 97.4 58.6 91 61L97.5 71.5L86.5 62.5L79 65.5L71 75.5C74.1667 79.8333 81 88.7 83 89.5C79.5 88.8333 71.3 85.9 66.5 79.5C63.6667 79.5 57.8 79.7 57 80.5C56.2 81.3 52 86.1667 50 88.5C54.3333 93.3333 64.1 103.2 68.5 104L62.5 105C57.1667 101.833 46.4 95 46 93C45.6 91 38.5 99.5 35 104C31 106 22.1 110 18.5 110C14.9 110 4.66667 107 0 105.5Z" fill="#006F62"/>
</svg>
